HIERARCHY
ROOT Hips
{
	OFFSET -28.066906 100.481125 -0.179846
	CHANNELS 6 Xposition Yposition Zposition Xrotation Yrotation Zrotation
	JOINT Chest
	{
		OFFSET 3.128965 13.089767 2.240934
		CHANNELS 3 Xrotation Yrotation Zrotation
		JOINT Chest2
		{
			OFFSET 8.273214 18.605652 6.667086
			CHANNELS 3 Xrotation Yrotation Zrotation
			JOINT Chest3
			{
				OFFSET 3.897024 14.132904 2.809628
				CHANNELS 3 Xrotation Yrotation Zrotation
				JOINT Neck
				{
					OFFSET 5.674770 15.964111 3.400043
					CHANNELS 3 Xrotation Yrotation Zrotation
					JOINT Head
					{
						OFFSET 1.783963 9.700424 3.542173
						CHANNELS 3 Xrotation Yrotation Zrotation
						End Site
						{
							OFFSET 1.801410 9.721664 3.474443
						}
					}
				}
				JOINT LeftCollar
				{
					OFFSET 8.311630 10.296173 5.168171
					CHANNELS 3 Xrotation Yrotation Zrotation
					JOINT LeftUpArm
					{
						OFFSET 16.807384 -4.508698 -2.383865
						CHANNELS 3 Xrotation Yrotation Zrotation
						JOINT LeftLowArm
						{
							OFFSET 2.824631 -24.063782 23.509226
							CHANNELS 3 Xrotation Yrotation Zrotation
							JOINT LeftHand
							{
								OFFSET -25.146229 2.718719 16.162407
								CHANNELS 3 Xrotation Yrotation Zrotation
								End Site
								{
									OFFSET -5.495854 0.594193 3.532387
								}
							}
						}
					}
				}
				JOINT RightCollar
				{
					OFFSET 0.362008 13.010544 5.692398
					CHANNELS 3 Xrotation Yrotation Zrotation
					JOINT RightUpArm
					{
						OFFSET -13.521869 9.321884 -6.225585
						CHANNELS 3 Xrotation Yrotation Zrotation
						JOINT RightLowArm
						{
							OFFSET -16.315014 25.509109 14.927810
							CHANNELS 3 Xrotation Yrotation Zrotation
							JOINT RightHand
							{
								OFFSET 7.127617 25.517136 14.107721
								CHANNELS 3 Xrotation Yrotation Zrotation
								End Site
								{
									OFFSET 1.557800 5.577042 3.083366
								}
							}
						}
					}
				}
			}
		}
	}
	JOINT LeftUpLeg
	{
		OFFSET 9.564459 -1.889816 -2.317079
		CHANNELS 3 Xrotation Yrotation Zrotation
		JOINT LeftLowLeg
		{
			OFFSET 31.321911 -34.019600 10.275883
			CHANNELS 3 Xrotation Yrotation Zrotation
			JOINT LeftFoot
			{
				OFFSET -16.492956 -35.721603 -21.272457
				CHANNELS 3 Xrotation Yrotation Zrotation
				JOINT LeftToe
				{
					OFFSET 15.189318 -17.984076 2.327515
					CHANNELS 3 Xrotation Yrotation Zrotation
					End Site
					{
						OFFSET 20.736816 -5.222329 10.112902
					}
				}
			}
		}
	}
	JOINT RightUpLeg
	{
		OFFSET -9.564507 1.889626 2.317047
		CHANNELS 3 Xrotation Yrotation Zrotation
		JOINT RightLowLeg
		{
			OFFSET 2.328552 -46.428101 9.111570
			CHANNELS 3 Xrotation Yrotation Zrotation
			JOINT RightFoot
			{
				OFFSET 12.280394 -36.861694 -22.158215
				CHANNELS 3 Xrotation Yrotation Zrotation
				JOINT RightToe
				{
					OFFSET -2.695616 -18.007288 15.100595
					CHANNELS 3 Xrotation Yrotation Zrotation
					End Site
					{
						OFFSET -9.238804 -4.823869 21.235130
					}
				}
			}
		}
	}
}
MOTION
Frames: 11
Frame Time: 0.033333
-3.254946 105.841827 -1.111745 -4.682521 -14.722956 10.886303 -6.562599 -1.963075 12.468160 -2.275960 7.353581 -3.989949 11.752253 8.023290 1.005784 -2.247379 8.475888 -4.163866 -0.000002 -0.000001 -0.000001 13.040128 23.098687 -22.839830 43.767193 20.753847 -11.001827 10.402463 37.892506 36.573337 -0.000002 0.000003 0.000002 6.141418 -8.187943 37.424881 25.779234 -16.128940 81.669719 34.742058 -15.687292 39.836549 0.000003 0.000001 0.000002 21.974863 -5.559888 -48.317967 -22.710516 -17.244773 54.373282 -25.180073 -28.279001 -38.242274 0.000001 0.000001 0.000001 16.278791 -4.408169 -15.826274 -25.053965 -2.901011 -19.764810 -1.436207 35.087723 17.385499 -0.000000 0.000002 0.000000 
-3.247116 105.842293 -1.108423 -4.680530 -14.689589 10.913840 -6.666104 -1.952260 12.504056 -1.043835 6.863607 -4.376377 10.541032 8.406564 1.149891 -1.988576 8.305167 -4.092368 0.000000 -0.000000 -0.000002 12.954596 23.149676 -22.901172 43.837551 20.902771 -11.043191 10.650031 38.033703 36.641701 -0.000003 0.000001 -0.000000 6.061384 -8.165845 37.491028 25.605539 -16.551324 81.687280 34.698208 -15.637503 40.013772 -0.000000 -0.000001 0.000001 22.009665 -5.622987 -48.432516 -22.589242 -17.215324 54.472210 -25.277697 -28.311243 -38.486545 -0.000000 0.000001 0.000001 16.470660 -4.473712 -15.969291 -25.287611 -2.907822 -19.592604 -0.889356 35.022662 17.276789 -0.000000 -0.000001 0.000000 
-3.236778 105.851311 -1.111361 -4.821535 -14.887784 10.847212 -6.363557 -1.979151 12.380073 -1.384003 6.899662 -4.202366 10.705003 8.226893 1.075053 -1.926909 8.445973 -4.231186 -0.000002 -0.000002 -0.000003 12.822134 23.443354 -22.896923 44.036566 21.262517 -11.282444 10.980940 37.957929 36.093889 -0.000002 0.000001 0.000003 6.218672 -7.505242 37.607582 25.339507 -16.676356 81.766414 34.394951 -15.401691 39.915926 0.000001 0.000003 0.000003 21.715792 -5.569981 -48.316249 -22.170763 -16.815125 54.352576 -25.016796 -28.199464 -38.134172 -0.000001 -0.000001 -0.000000 16.277961 -4.400460 -15.950423 -24.789683 -2.794894 -19.640518 -1.007628 35.087235 17.435530 -0.000000 0.000000 0.000002 
-3.221010 105.852989 -1.104723 -4.731515 -15.154081 10.816189 -6.690956 -1.932867 12.499805 -1.155389 6.804627 -4.258138 10.824592 8.226741 1.016502 -2.073213 8.642211 -4.222487 0.000000 -0.000002 -0.000002 12.939051 23.591519 -23.053516 43.767651 21.182573 -11.098907 11.203194 38.053115 36.140344 0.000001 -0.000003 -0.000000 6.312286 -7.306992 37.671516 25.343463 -16.405602 81.639038 34.025246 -15.506104 39.897601 0.000004 -0.000006 0.000002 21.755312 -5.626376 -48.437161 -22.075407 -16.740493 54.356640 -24.908911 -28.158155 -37.831410 -0.000001 0.000001 0.000000 16.232870 -4.419145 -16.085550 -24.746050 -2.886044 -19.562191 -0.831169 35.261767 17.402738 -0.000002 0.000000 0.000002 
-3.197458 105.852730 -1.095651 -4.798478 -15.480289 10.902096 -6.701301 -1.898859 12.405586 -0.881758 6.768591 -4.404801 10.700386 8.336668 1.108154 -1.992793 8.641716 -4.221645 -0.000000 -0.000001 0.000000 13.025175 23.899983 -23.155007 43.703881 21.203107 -10.988169 11.231925 37.869659 36.090235 -0.000001 -0.000001 0.000002 6.331970 -7.278574 37.719095 25.352636 -16.731052 81.575435 34.339725 -15.396566 39.883442 -0.000000 -0.000002 0.000001 21.973649 -5.757223 -48.743614 -22.060007 -16.739475 54.356544 -24.945442 -28.073517 -37.550529 0.000000 -0.000001 -0.000000 15.963621 -4.364426 -16.288394 -24.063523 -2.715715 -19.605358 -0.940427 35.409258 17.574191 -0.000000 0.000002 0.000001 
-3.167824 105.855850 -1.090828 -5.126434 -15.402766 10.851424 -6.215978 -1.993727 12.352594 -0.744490 6.653858 -4.434791 10.362497 8.446840 1.119037 -1.862246 8.585878 -4.360851 -0.000000 -0.000001 -0.000001 12.881392 23.828254 -23.179770 43.732776 21.443913 -11.175330 11.799562 38.157204 35.873308 0.000006 -0.000001 0.000002 6.082552 -7.459361 37.858516 25.066063 -17.106545 81.450060 34.499900 -15.048152 39.957495 -0.000000 -0.000000 -0.000000 22.037327 -5.733317 -48.716119 -21.649408 -16.307942 54.239410 -24.831674 -28.084584 -37.502291 0.000000 -0.000001 -0.000000 15.825075 -4.402110 -16.331442 -23.491698 -2.756236 -19.614070 -1.232678 35.422563 17.616740 -0.000002 0.000002 0.000001 
-3.125973 105.850891 -1.078128 -4.865969 -15.477869 10.749381 -6.574875 -1.988765 12.618516 0.126526 6.330834 -4.701539 9.642670 8.602815 1.109915 -1.899757 8.509717 -4.318697 -0.000002 -0.000001 -0.000001 13.085945 23.724852 -23.173020 43.650178 20.877668 -11.129087 10.874902 38.654715 36.757209 0.000001 0.000001 0.000003 6.387464 -7.290695 37.620989 25.425348 -16.656393 81.666912 34.417887 -15.352271 39.205689 -0.000000 0.000000 0.000002 21.621918 -5.617191 -48.614425 -21.087388 -15.974675 54.072764 -24.641644 -27.989803 -37.335364 -0.000001 0.000001 0.000001 15.145139 -4.163607 -16.167362 -22.640573 -2.491350 -19.825425 -1.861106 35.549905 17.947410 -0.000001 0.000004 0.000001 
-3.079359 105.848076 -1.068467 -4.865907 -15.568931 10.782907 -6.231213 -2.008646 12.440249 -0.998848 6.656681 -4.302390 10.640208 8.465799 0.967397 -2.082577 8.471071 -4.340373 -0.000001 -0.000002 -0.000001 12.937008 23.178419 -23.252916 43.683168 21.002861 -11.208588 10.556798 38.724232 36.749204 -0.000002 0.000002 0.000004 5.997806 -7.947160 37.633495 25.271140 -17.004173 81.719662 34.413843 -15.423277 39.396391 0.000001 0.000000 0.000001 21.720043 -5.604762 -48.769149 -21.066853 -15.967650 53.940125 -24.727677 -27.902820 -37.082391 0.000001 0.000004 0.000001 14.415423 -3.987949 -16.129975 -21.509239 -2.162734 -20.037024 -2.317192 35.742694 18.251731 -0.000001 0.000004 0.000003 
-3.019732 105.831619 -1.046322 -5.034567 -15.346636 10.743490 -6.120756 -2.038205 12.512940 -1.106325 6.616697 -4.230141 10.673781 8.213436 0.838937 -1.933743 8.464182 -4.517807 -0.000000 -0.000001 -0.000000 13.002987 23.524351 -23.484912 43.757054 20.979322 -11.482346 9.704350 38.981430 36.781901 -0.000003 0.000002 0.000005 6.227797 -7.453651 37.796897 25.095676 -17.686970 81.922914 34.569087 -15.233436 38.686024 0.000001 -0.000001 0.000002 21.904309 -5.595707 -48.834958 -21.188514 -15.903269 53.946063 -24.925817 -27.913054 -37.074373 0.000001 -0.000001 0.000001 14.240097 -3.962848 -16.104073 -20.982701 -2.050999 -20.184534 -2.620054 35.614266 18.320005 -0.000002 0.000002 0.000002 
-2.947187 105.811508 -1.028982 -5.118411 -14.992264 10.684131 -6.142691 -2.099136 12.667498 -0.552765 6.240943 -4.289375 10.182993 8.262470 0.652169 -2.033178 8.261439 -4.311201 0.000002 0.000000 -0.000000 13.281996 23.159281 -23.893294 43.624487 20.525128 -11.413881 7.890501 39.905329 37.756405 0.000003 0.000001 0.000002 6.107250 -8.205948 37.868778 25.277301 -17.536868 81.945591 34.171897 -15.659302 38.100407 0.000001 0.000001 0.000000 22.074313 -5.588813 -48.891860 -20.636781 -15.714034 53.863247 -25.009457 -27.761411 -36.873029 -0.000000 0.000001 -0.000000 13.550458 -3.722110 -15.881278 -19.850958 -1.538590 -20.320612 -1.986757 35.244872 17.963941 -0.000001 0.000000 0.000003 
-2.868095 105.787384 -1.006317 -5.402237 -14.821058 10.680185 -5.604647 -2.230076 12.623857 -0.124447 6.141552 -4.518093 9.514553 8.594167 0.854153 -1.405266 7.990742 -4.375182 -0.000000 -0.000001 -0.000001 13.351484 22.872634 -24.071407 43.878535 20.641107 -11.650284 7.284416 41.379233 38.844850 0.000001 0.000001 0.000003 6.172543 -8.227335 37.963892 25.228805 -17.870333 82.217664 33.721778 -15.632211 37.290046 0.000003 0.000000 0.000003 22.506250 -5.618529 -49.080981 -20.531229 -15.761640 53.825961 -24.867156 -27.639641 -36.722468 0.000002 0.000005 0.000001 13.585776 -3.779054 -15.916846 -19.352969 -1.276327 -20.463756 -1.864821 35.537003 18.085125 -0.000001 0.000002 -0.000000 
